<svg xmlns="http://www.w3.org/2000/svg" xmlns:xlink="http://www.w3.org/1999/xlink" width="500" zoomAndPan="magnify" viewBox="0 0 375 374.999991" height="500" preserveAspectRatio="xMidYMid meet" version="1.0"><defs><g/><clipPath id="id1"><path d="M 12.097656 106.632812 L 137.347656 106.632812 L 137.347656 268.632812 L 12.097656 268.632812 Z M 12.097656 106.632812 " clip-rule="nonzero"/></clipPath></defs><rect x="-37.5" width="450" fill="#ffffff" y="-37.499999" height="449.999989" fill-opacity="1"/><rect x="-37.5" width="450" fill="#000000" y="-37.499999" height="449.999989" fill-opacity="1"/><rect x="-37.5" width="450" fill="#ffffff" y="-37.499999" height="449.999989" fill-opacity="1"/><rect x="-37.5" width="450" fill="#000000" y="-37.499999" height="449.999989" fill-opacity="1"/><g clip-path="url(#id1)"><path fill="#f8cf2c" d="M 85.410156 117.796875 C 79.273438 113.867188 74.027344 112.570312 74.027344 112.570312 C 72.679688 112.234375 71.292969 112.945312 70.777344 114.242188 C 68.078125 121.011719 67.804688 127.785156 68.328125 133.164062 C 60.171875 135.941406 52.570312 140.566406 46.398438 146.761719 C 35.390625 157.820312 27.425781 162.566406 22.164062 164.496094 C 18.246094 165.9375 15.816406 165.574219 15.816406 165.574219 C 15.816406 165.574219 15.902344 165.601562 15.902344 165.601562 L 15.902344 165.605469 C 15.441406 165.453125 14.945312 165.417969 14.4375 165.527344 C 13.082031 165.820312 12.175781 167.066406 12.253906 168.410156 C 12.199219 169.863281 12.34375 174.824219 16.175781 180.617188 C 20.332031 186.894531 29.066406 194.441406 47.726562 198.847656 C 50.03125 199.394531 52.265625 199.984375 54.414062 200.621094 C 57.289062 207.390625 61.714844 223.8125 44.046875 235.640625 C 42.769531 236.492188 42.425781 238.226562 43.277344 239.507812 C 44.125 240.789062 45.851562 241.132812 47.128906 240.28125 C 65.058594 228.277344 63.953125 212.320312 61.109375 202.832031 C 95.730469 215.527344 107.628906 240.90625 95.878906 264.558594 C 95.828125 264.65625 95.789062 264.75 95.75 264.847656 L 95.734375 264.890625 C 95.582031 265.308594 95.535156 265.75 95.589844 266.175781 L 95.597656 266.265625 C 95.65625 266.648438 95.796875 267.023438 96.019531 267.367188 L 96.097656 267.484375 L 96.136719 267.535156 C 96.15625 267.5625 96.175781 267.585938 96.195312 267.609375 L 96.226562 267.648438 L 96.261719 267.6875 C 96.550781 268.015625 96.898438 268.261719 97.277344 268.417969 L 97.335938 268.441406 L 97.367188 268.453125 C 97.835938 268.628906 98.34375 268.675781 98.839844 268.585938 L 98.90625 268.574219 L 98.933594 268.566406 C 99.203125 268.507812 99.46875 268.410156 99.714844 268.269531 C 101.308594 267.386719 137.214844 246.972656 137.214844 193.347656 C 137.214844 165.808594 127.582031 148.292969 114.347656 138.851562 C 111.195312 121.492188 97.527344 107.726562 97.527344 107.726562 C 96.683594 106.878906 95.394531 106.667969 94.324219 107.207031 C 90.625 109.0625 87.914062 112.449219 86.019531 116.425781 C 85.804688 116.875 85.601562 117.332031 85.410156 117.796875 Z M 104.828125 255.945312 C 116.636719 243.253906 121.125 229.933594 120.320312 218.300781 C 118.902344 197.898438 101.039062 183.074219 79.488281 187.710938 C 58.476562 192.230469 44.039062 191.316406 34.152344 188.308594 C 38.082031 190.230469 42.957031 191.992188 49 193.421875 C 51.769531 194.074219 54.4375 194.796875 57.007812 195.578125 C 57.160156 195.613281 57.308594 195.65625 57.449219 195.714844 C 94.707031 207.214844 110.261719 231.6875 104.828125 255.945312 Z M 125.394531 228.121094 C 129.109375 218.726562 131.664062 207.222656 131.664062 193.347656 C 131.664062 167.578125 122.808594 151.253906 110.257812 142.792969 C 109.613281 142.359375 109.175781 141.667969 109.0625 140.898438 C 107.113281 128.078125 98.59375 117.265625 95.101562 113.296875 C 93.363281 114.691406 92.058594 116.667969 91.03125 118.832031 C 90.460938 120.023438 89.980469 121.277344 89.570312 122.542969 C 89.53125 122.855469 89.441406 123.15625 89.292969 123.445312 C 88.253906 126.980469 87.746094 130.554688 87.492188 133.222656 C 87.355469 134.621094 86.207031 135.699219 84.8125 135.742188 C 80.722656 135.871094 76.625 136.519531 72.640625 137.652344 C 72.378906 137.789062 72.09375 137.882812 71.785156 137.925781 C 71.738281 137.9375 71.691406 137.941406 71.648438 137.945312 C 63.710938 140.375 56.28125 144.730469 50.328125 150.707031 C 35.046875 166.050781 24.785156 170.117188 19.207031 171 C 23.082031 177.675781 36.363281 191.285156 78.324219 182.253906 C 103.425781 176.855469 124.210938 194.152344 125.859375 217.914062 C 126.085938 221.199219 125.945312 224.621094 125.394531 228.121094 Z M 83.589844 123.273438 C 80.253906 120.964844 77.117188 119.554688 75.070312 118.777344 C 73.6875 123.351562 73.488281 127.820312 73.769531 131.605469 C 76.558594 130.953125 79.394531 130.511719 82.234375 130.296875 C 82.519531 128.164062 82.949219 125.738281 83.589844 123.273438 Z M 83.589844 123.273438 " fill-opacity="1" fill-rule="evenodd"/></g><g fill="#f8cf2c" fill-opacity="1"><g transform="translate(224.99999, 163.155371)"><g><path d="M 14.90625 -13.203125 L 14.90625 -9.046875 L 7.40625 -9.046875 L 7.5625 0 L 2.609375 0 L 2.609375 -22.140625 L 15.90625 -22.140625 L 15.90625 -17.859375 L 7.5 -17.953125 L 7.40625 -13.203125 Z M 14.90625 -13.203125 "/></g></g></g><g fill="#f8cf2c" fill-opacity="1"><g transform="translate(241.915512, 163.155371)"><g><path d="M 14.6875 -0.09375 C 13.632812 0.238281 12.414062 0.40625 11.03125 0.40625 C 9.644531 0.40625 8.421875 0.238281 7.359375 -0.09375 C 6.296875 -0.425781 5.3125 -1.003906 4.40625 -1.828125 C 2.519531 -3.503906 1.578125 -6.601562 1.578125 -11.125 C 1.578125 -16.207031 2.878906 -19.566406 5.484375 -21.203125 C 6.890625 -22.097656 8.738281 -22.546875 11.03125 -22.546875 C 14.613281 -22.546875 17.148438 -21.414062 18.640625 -19.15625 C 19.859375 -17.300781 20.46875 -14.625 20.46875 -11.125 C 20.46875 -6.601562 19.523438 -3.503906 17.640625 -1.828125 C 16.734375 -1.003906 15.75 -0.425781 14.6875 -0.09375 Z M 8.515625 -17.703125 C 7.941406 -17.367188 7.492188 -16.679688 7.171875 -15.640625 C 6.859375 -14.597656 6.703125 -13.070312 6.703125 -11.0625 C 6.703125 -9.0625 6.863281 -7.535156 7.1875 -6.484375 C 7.519531 -5.429688 7.972656 -4.742188 8.546875 -4.421875 C 9.128906 -4.097656 9.953125 -3.9375 11.015625 -3.9375 C 12.085938 -3.9375 12.910156 -4.101562 13.484375 -4.4375 C 14.722656 -5.15625 15.34375 -7.363281 15.34375 -11.0625 C 15.34375 -14.789062 14.742188 -17.003906 13.546875 -17.703125 C 12.953125 -18.035156 12.109375 -18.203125 11.015625 -18.203125 C 9.929688 -18.203125 9.097656 -18.035156 8.515625 -17.703125 Z M 8.515625 -17.703125 "/></g></g></g><g fill="#f8cf2c" fill-opacity="1"><g transform="translate(263.96554, 163.155371)"><g><path d="M -0.21875 0 L 6.546875 -11.25 L 0.0625 -22.140625 L 5.609375 -22.140625 L 9.671875 -14.296875 L 9.859375 -14.296875 L 13.859375 -22.140625 L 19.40625 -22.140625 L 12.953125 -11.25 L 19.71875 0 L 14.078125 0 L 9.890625 -8.03125 L 9.703125 -8.03125 L 5.421875 0 Z M -0.21875 0 "/></g></g></g><g fill="#38b6ff" fill-opacity="1"><g transform="translate(153.020766, 204.31862)"><g><path d="M 6.335938 -13.519531 L 1.835938 -13.519531 L 1.835938 0 L 6.335938 0 C 10.3125 0 13.191406 -2.839844 13.191406 -6.757812 C 13.191406 -10.660156 10.3125 -13.5 6.335938 -13.5 Z M 6.296875 -1.582031 L 3.535156 -1.582031 L 3.535156 -11.914062 L 6.296875 -11.914062 C 9.328125 -11.914062 11.472656 -9.734375 11.472656 -6.757812 C 11.472656 -3.765625 9.328125 -1.582031 6.296875 -1.582031 Z M 6.296875 -1.582031 "/></g></g></g><g fill="#38b6ff" fill-opacity="1"><g transform="translate(171.174737, 204.31862)"><g><path d="M 11.394531 -5.15625 C 11.394531 -8.207031 9.308594 -10.640625 6.140625 -10.640625 C 3.109375 -10.640625 0.832031 -8.304688 0.832031 -5.214844 C 0.832031 -2.105469 3.109375 0.230469 6.140625 0.230469 C 8.402344 0.230469 10.234375 -1.023438 11.125 -3.167969 L 9.386719 -3.167969 C 8.75 -2.046875 7.589844 -1.371094 6.140625 -1.371094 C 4.171875 -1.371094 2.722656 -2.644531 2.472656 -4.578125 L 11.355469 -4.578125 C 11.375 -4.769531 11.394531 -4.964844 11.394531 -5.15625 Z M 6.140625 -9.097656 C 7.996094 -9.097656 9.40625 -7.9375 9.753906 -6.082031 L 2.511719 -6.082031 C 2.839844 -7.898438 4.25 -9.097656 6.140625 -9.097656 Z M 6.140625 -9.097656 "/></g></g></g><g fill="#38b6ff" fill-opacity="1"><g transform="translate(187.378153, 204.31862)"><g><path d="M 4.945312 0.230469 C 7.414062 0.230469 9.078125 -1.023438 9.078125 -2.972656 C 9.078125 -5.523438 6.953125 -5.871094 5.15625 -6.160156 C 3.765625 -6.375 2.570312 -6.585938 2.570312 -7.6875 C 2.570312 -8.59375 3.457031 -9.171875 4.867188 -9.171875 C 6.335938 -9.171875 7.222656 -8.554688 7.28125 -7.414062 L 8.824219 -7.414062 C 8.769531 -9.386719 7.261719 -10.640625 4.90625 -10.640625 C 2.550781 -10.640625 0.964844 -9.425781 0.964844 -7.628906 C 0.964844 -5.273438 2.972656 -4.90625 4.75 -4.597656 C 6.160156 -4.363281 7.453125 -4.132812 7.453125 -2.898438 C 7.453125 -1.894531 6.429688 -1.273438 5 -1.273438 C 3.535156 -1.273438 2.472656 -1.949219 2.394531 -3.1875 L 0.773438 -3.1875 C 0.867188 -1.082031 2.472656 0.230469 4.945312 0.230469 Z M 4.945312 0.230469 "/></g></g></g><g fill="#38b6ff" fill-opacity="1"><g transform="translate(201.283393, 204.31862)"><g><path d="M 10.542969 -10.429688 L 10.332031 -8.824219 C 9.367188 -9.964844 7.917969 -10.640625 6.21875 -10.640625 C 3.128906 -10.640625 0.8125 -8.324219 0.8125 -5.195312 C 0.8125 -2.105469 3.128906 0.230469 6.21875 0.230469 C 7.917969 0.230469 9.347656 -0.445312 10.3125 -1.5625 L 10.488281 0 L 11.839844 0 L 11.839844 -10.429688 Z M 6.335938 -1.351562 C 4.132812 -1.351562 2.492188 -3.011719 2.492188 -5.214844 C 2.492188 -7.398438 4.132812 -9.058594 6.335938 -9.058594 C 8.554688 -9.058594 10.160156 -7.414062 10.160156 -5.214844 C 10.160156 -2.992188 8.554688 -1.351562 6.335938 -1.351562 Z M 6.335938 -1.351562 "/></g></g></g><g fill="#38b6ff" fill-opacity="1"><g transform="translate(218.780733, 204.31862)"><g><path d="M 6.410156 -10.46875 C 4.90625 -10.46875 3.824219 -9.90625 3.070312 -8.824219 L 2.820312 -10.429688 L 1.640625 -10.429688 L 1.640625 0 L 3.28125 0 L 3.28125 -5.660156 C 3.28125 -7.6875 4.363281 -8.921875 6.277344 -8.921875 L 7.339844 -8.921875 L 7.339844 -10.46875 Z M 6.410156 -10.46875 "/></g></g></g><g fill="#38b6ff" fill-opacity="1"><g transform="translate(230.233287, 204.31862)"><g><path d="M 6.410156 -10.46875 C 4.90625 -10.46875 3.824219 -9.90625 3.070312 -8.824219 L 2.820312 -10.429688 L 1.640625 -10.429688 L 1.640625 0 L 3.28125 0 L 3.28125 -5.660156 C 3.28125 -7.6875 4.363281 -8.921875 6.277344 -8.921875 L 7.339844 -8.921875 L 7.339844 -10.46875 Z M 6.410156 -10.46875 "/></g></g></g><g fill="#38b6ff" fill-opacity="1"><g transform="translate(241.685841, 204.31862)"><g><path d="M 6.355469 0.230469 C 9.5 0.230469 11.878906 -2.085938 11.878906 -5.214844 C 11.878906 -8.324219 9.5 -10.640625 6.355469 -10.640625 C 3.1875 -10.640625 0.8125 -8.34375 0.8125 -5.214844 C 0.8125 -2.085938 3.1875 0.230469 6.355469 0.230469 Z M 6.355469 -1.351562 C 4.113281 -1.351562 2.492188 -2.972656 2.492188 -5.214844 C 2.492188 -7.433594 4.113281 -9.058594 6.355469 -9.058594 C 8.574219 -9.058594 10.195312 -7.433594 10.195312 -5.195312 C 10.195312 -2.972656 8.574219 -1.351562 6.355469 -1.351562 Z M 6.355469 -1.351562 "/></g></g></g><g fill="#38b6ff" fill-opacity="1"><g transform="translate(258.410682, 204.31862)"><g><path d="M 1.640625 0 L 3.28125 0 L 3.28125 -14.136719 L 1.640625 -14.136719 Z M 1.640625 0 "/></g></g></g><g fill="#38b6ff" fill-opacity="1"><g transform="translate(267.352614, 204.31862)"><g><path d="M 1.640625 0 L 3.28125 0 L 3.28125 -14.136719 L 1.640625 -14.136719 Z M 1.640625 0 "/></g></g></g><g fill="#38b6ff" fill-opacity="1"><g transform="translate(276.294546, 204.31862)"><g><path d="M 6.355469 0.230469 C 9.5 0.230469 11.878906 -2.085938 11.878906 -5.214844 C 11.878906 -8.324219 9.5 -10.640625 6.355469 -10.640625 C 3.1875 -10.640625 0.8125 -8.34375 0.8125 -5.214844 C 0.8125 -2.085938 3.1875 0.230469 6.355469 0.230469 Z M 6.355469 -1.351562 C 4.113281 -1.351562 2.492188 -2.972656 2.492188 -5.214844 C 2.492188 -7.433594 4.113281 -9.058594 6.355469 -9.058594 C 8.574219 -9.058594 10.195312 -7.433594 10.195312 -5.195312 C 10.195312 -2.972656 8.574219 -1.351562 6.355469 -1.351562 Z M 6.355469 -1.351562 "/></g></g></g><g fill="#38b6ff" fill-opacity="1"><g transform="translate(293.019387, 204.31862)"><g/></g></g><g fill="#38b6ff" fill-opacity="1"><g transform="translate(302.07719, 204.31862)"><g><path d="M 17.574219 -13.519531 L 14.292969 -2.761719 L 10.214844 -13.25 L 9.539062 -13.25 L 5.582031 -2.761719 L 2.222656 -13.519531 L 0.425781 -13.519531 L 4.769531 0 L 6.257812 0 L 9.886719 -9.597656 L 13.617188 0 L 15.101562 0 L 19.371094 -13.519531 Z M 17.574219 -13.519531 "/></g></g></g><g fill="#38b6ff" fill-opacity="1"><g transform="translate(325.909017, 204.31862)"><g><path d="M 11.394531 -5.15625 C 11.394531 -8.207031 9.308594 -10.640625 6.140625 -10.640625 C 3.109375 -10.640625 0.832031 -8.304688 0.832031 -5.214844 C 0.832031 -2.105469 3.109375 0.230469 6.140625 0.230469 C 8.402344 0.230469 10.234375 -1.023438 11.125 -3.167969 L 9.386719 -3.167969 C 8.75 -2.046875 7.589844 -1.371094 6.140625 -1.371094 C 4.171875 -1.371094 2.722656 -2.644531 2.472656 -4.578125 L 11.355469 -4.578125 C 11.375 -4.769531 11.394531 -4.964844 11.394531 -5.15625 Z M 6.140625 -9.097656 C 7.996094 -9.097656 9.40625 -7.9375 9.753906 -6.082031 L 2.511719 -6.082031 C 2.839844 -7.898438 4.25 -9.097656 6.140625 -9.097656 Z M 6.140625 -9.097656 "/></g></g></g><g fill="#38b6ff" fill-opacity="1"><g transform="translate(342.112431, 204.31862)"><g><path d="M 7.144531 -10.640625 C 5.601562 -10.640625 4.25 -10.0625 3.28125 -9.097656 L 3.28125 -14.136719 L 1.640625 -14.136719 L 1.640625 0 L 2.917969 0 L 3.148438 -1.46875 C 4.113281 -0.40625 5.523438 0.230469 7.144531 0.230469 C 10.292969 0.230469 12.535156 -2.105469 12.535156 -5.214844 C 12.535156 -8.324219 10.292969 -10.640625 7.144531 -10.640625 Z M 7.03125 -1.351562 C 4.808594 -1.351562 3.1875 -3.03125 3.1875 -5.214844 C 3.1875 -7.398438 4.808594 -9.058594 7.03125 -9.058594 C 9.230469 -9.058594 10.855469 -7.414062 10.855469 -5.214844 C 10.855469 -2.992188 9.230469 -1.351562 7.03125 -1.351562 Z M 7.03125 -1.351562 "/></g></g></g></svg>