<svg xmlns="http://www.w3.org/2000/svg" xmlns:xlink="http://www.w3.org/1999/xlink" width="500" zoomAndPan="magnify" viewBox="0 0 375 374.999991" height="500" preserveAspectRatio="xMidYMid meet" version="1.0"><defs><g/><clipPath id="id1"><path d="M 81.191406 6 L 293.441406 6 L 293.441406 279.28125 L 81.191406 279.28125 Z M 81.191406 6 " clip-rule="nonzero"/></clipPath></defs><g clip-path="url(#id1)"><path fill="#f8cf2c" d="M 205.425781 24.394531 C 195.027344 17.757812 186.140625 15.566406 186.140625 15.566406 C 183.859375 14.996094 181.503906 16.199219 180.628906 18.386719 C 176.054688 29.828125 175.59375 41.273438 176.484375 50.367188 C 162.660156 55.058594 149.777344 62.875 139.320312 73.34375 C 120.664062 92.027344 107.164062 100.050781 98.25 103.3125 C 91.605469 105.742188 87.496094 105.136719 87.496094 105.136719 C 87.496094 105.136719 87.636719 105.179688 87.636719 105.179688 L 87.636719 105.1875 C 86.859375 104.929688 86.011719 104.867188 85.15625 105.054688 C 82.859375 105.550781 81.320312 107.652344 81.453125 109.921875 C 81.363281 112.378906 81.609375 120.765625 88.101562 130.550781 C 95.144531 141.160156 109.945312 153.910156 141.570312 161.359375 C 145.476562 162.285156 149.257812 163.28125 152.902344 164.355469 C 157.769531 175.796875 165.277344 203.542969 135.335938 223.53125 C 133.171875 224.972656 132.585938 227.898438 134.027344 230.066406 C 135.46875 232.230469 138.394531 232.8125 140.554688 231.371094 C 170.941406 211.085938 169.0625 184.121094 164.25 168.09375 C 222.917969 189.546875 243.082031 232.425781 223.167969 272.402344 C 223.085938 272.5625 223.015625 272.722656 222.949219 272.886719 L 222.921875 272.960938 C 222.667969 273.667969 222.589844 274.410156 222.679688 275.128906 L 222.695312 275.28125 C 222.796875 275.929688 223.03125 276.566406 223.40625 277.144531 L 223.472656 277.238281 L 223.542969 277.34375 L 223.605469 277.429688 C 223.636719 277.472656 223.675781 277.511719 223.707031 277.554688 L 223.761719 277.617188 L 223.816406 277.683594 C 224.304688 278.238281 224.898438 278.652344 225.542969 278.921875 L 225.636719 278.960938 L 225.695312 278.980469 C 226.488281 279.277344 227.351562 279.355469 228.1875 279.203125 L 228.300781 279.179688 L 228.347656 279.171875 C 228.804688 279.074219 229.25 278.902344 229.671875 278.667969 C 232.371094 277.179688 293.222656 242.679688 293.222656 152.0625 C 293.222656 105.53125 276.894531 75.933594 254.46875 59.980469 C 249.128906 30.644531 225.96875 7.382812 225.96875 7.382812 C 224.535156 5.949219 222.347656 5.589844 220.535156 6.5 C 214.269531 9.640625 209.671875 15.359375 206.460938 22.082031 C 206.101562 22.839844 205.757812 23.613281 205.425781 24.394531 Z M 238.335938 257.84375 C 258.351562 236.398438 265.953125 213.886719 264.589844 194.234375 C 262.191406 159.753906 231.914062 134.703125 195.394531 142.535156 C 159.785156 150.179688 135.320312 148.632812 118.566406 143.550781 C 125.222656 146.796875 133.484375 149.773438 143.726562 152.191406 C 148.421875 153.292969 152.941406 154.515625 157.296875 155.832031 C 157.554688 155.890625 157.804688 155.964844 158.046875 156.0625 C 221.179688 175.496094 247.546875 216.855469 238.335938 257.84375 Z M 273.1875 210.828125 C 279.488281 194.949219 283.8125 175.507812 283.8125 152.0625 C 283.8125 108.519531 268.804688 80.929688 247.535156 66.636719 C 246.445312 65.902344 245.707031 64.738281 245.507812 63.433594 C 242.210938 41.773438 227.769531 23.5 221.855469 16.792969 C 218.910156 19.152344 216.699219 22.492188 214.957031 26.144531 C 213.992188 28.160156 213.175781 30.277344 212.480469 32.417969 C 212.414062 32.941406 212.261719 33.457031 212.011719 33.941406 C 210.246094 39.917969 209.390625 45.957031 208.957031 50.464844 C 208.726562 52.828125 206.78125 54.648438 204.414062 54.71875 C 197.484375 54.941406 190.539062 56.035156 183.792969 57.949219 C 183.34375 58.179688 182.859375 58.339844 182.339844 58.414062 C 182.261719 58.429688 182.183594 58.4375 182.105469 58.449219 C 168.65625 62.550781 156.0625 69.910156 145.972656 80.007812 C 120.078125 105.9375 102.6875 112.8125 93.238281 114.300781 C 99.804688 125.578125 122.308594 148.582031 193.425781 133.320312 C 235.957031 124.195312 271.183594 153.421875 273.976562 193.574219 C 274.363281 199.128906 274.121094 204.910156 273.1875 210.828125 Z M 202.34375 33.648438 C 196.691406 29.753906 191.371094 27.367188 187.910156 26.054688 C 185.566406 33.78125 185.226562 41.335938 185.703125 47.734375 C 190.429688 46.628906 195.234375 45.886719 200.050781 45.523438 C 200.527344 41.914062 201.257812 37.816406 202.34375 33.648438 Z M 202.34375 33.648438 " fill-opacity="1" fill-rule="evenodd"/></g><g fill="#f8cf2c" fill-opacity="1"><g transform="translate(158.249994, 307.743321)"><g><path d="M 14.90625 -13.203125 L 14.90625 -9.046875 L 7.40625 -9.046875 L 7.5625 0 L 2.609375 0 L 2.609375 -22.140625 L 15.90625 -22.140625 L 15.90625 -17.859375 L 7.5 -17.953125 L 7.40625 -13.203125 Z M 14.90625 -13.203125 "/></g></g></g><g fill="#f8cf2c" fill-opacity="1"><g transform="translate(175.165516, 307.743321)"><g><path d="M 14.6875 -0.09375 C 13.632812 0.238281 12.414062 0.40625 11.03125 0.40625 C 9.644531 0.40625 8.421875 0.238281 7.359375 -0.09375 C 6.296875 -0.425781 5.3125 -1.003906 4.40625 -1.828125 C 2.519531 -3.503906 1.578125 -6.601562 1.578125 -11.125 C 1.578125 -16.207031 2.878906 -19.566406 5.484375 -21.203125 C 6.890625 -22.097656 8.738281 -22.546875 11.03125 -22.546875 C 14.613281 -22.546875 17.148438 -21.414062 18.640625 -19.15625 C 19.859375 -17.300781 20.46875 -14.625 20.46875 -11.125 C 20.46875 -6.601562 19.523438 -3.503906 17.640625 -1.828125 C 16.734375 -1.003906 15.75 -0.425781 14.6875 -0.09375 Z M 8.515625 -17.703125 C 7.941406 -17.367188 7.492188 -16.679688 7.171875 -15.640625 C 6.859375 -14.597656 6.703125 -13.070312 6.703125 -11.0625 C 6.703125 -9.0625 6.863281 -7.535156 7.1875 -6.484375 C 7.519531 -5.429688 7.972656 -4.742188 8.546875 -4.421875 C 9.128906 -4.097656 9.953125 -3.9375 11.015625 -3.9375 C 12.085938 -3.9375 12.910156 -4.101562 13.484375 -4.4375 C 14.722656 -5.15625 15.34375 -7.363281 15.34375 -11.0625 C 15.34375 -14.789062 14.742188 -17.003906 13.546875 -17.703125 C 12.953125 -18.035156 12.109375 -18.203125 11.015625 -18.203125 C 9.929688 -18.203125 9.097656 -18.035156 8.515625 -17.703125 Z M 8.515625 -17.703125 "/></g></g></g><g fill="#f8cf2c" fill-opacity="1"><g transform="translate(197.215545, 307.743321)"><g><path d="M -0.21875 0 L 6.546875 -11.25 L 0.0625 -22.140625 L 5.609375 -22.140625 L 9.671875 -14.296875 L 9.859375 -14.296875 L 13.859375 -22.140625 L 19.40625 -22.140625 L 12.953125 -11.25 L 19.71875 0 L 14.078125 0 L 9.890625 -8.03125 L 9.703125 -8.03125 L 5.421875 0 Z M -0.21875 0 "/></g></g></g><g fill="#38b6ff" fill-opacity="1"><g transform="translate(86.271275, 342.749977)"><g><path d="M 6.335938 -13.519531 L 1.835938 -13.519531 L 1.835938 0 L 6.335938 0 C 10.3125 0 13.191406 -2.839844 13.191406 -6.757812 C 13.191406 -10.660156 10.3125 -13.5 6.335938 -13.5 Z M 6.296875 -1.582031 L 3.535156 -1.582031 L 3.535156 -11.914062 L 6.296875 -11.914062 C 9.328125 -11.914062 11.472656 -9.734375 11.472656 -6.757812 C 11.472656 -3.765625 9.328125 -1.582031 6.296875 -1.582031 Z M 6.296875 -1.582031 "/></g></g></g><g fill="#38b6ff" fill-opacity="1"><g transform="translate(104.425246, 342.749977)"><g><path d="M 11.394531 -5.15625 C 11.394531 -8.207031 9.308594 -10.640625 6.140625 -10.640625 C 3.109375 -10.640625 0.832031 -8.304688 0.832031 -5.214844 C 0.832031 -2.105469 3.109375 0.230469 6.140625 0.230469 C 8.402344 0.230469 10.234375 -1.023438 11.125 -3.167969 L 9.386719 -3.167969 C 8.75 -2.046875 7.589844 -1.371094 6.140625 -1.371094 C 4.171875 -1.371094 2.722656 -2.644531 2.472656 -4.578125 L 11.355469 -4.578125 C 11.375 -4.769531 11.394531 -4.964844 11.394531 -5.15625 Z M 6.140625 -9.097656 C 7.996094 -9.097656 9.40625 -7.9375 9.753906 -6.082031 L 2.511719 -6.082031 C 2.839844 -7.898438 4.25 -9.097656 6.140625 -9.097656 Z M 6.140625 -9.097656 "/></g></g></g><g fill="#38b6ff" fill-opacity="1"><g transform="translate(120.628663, 342.749977)"><g><path d="M 4.945312 0.230469 C 7.414062 0.230469 9.078125 -1.023438 9.078125 -2.972656 C 9.078125 -5.523438 6.953125 -5.871094 5.15625 -6.160156 C 3.765625 -6.375 2.570312 -6.585938 2.570312 -7.6875 C 2.570312 -8.59375 3.457031 -9.171875 4.867188 -9.171875 C 6.335938 -9.171875 7.222656 -8.554688 7.28125 -7.414062 L 8.824219 -7.414062 C 8.769531 -9.386719 7.261719 -10.640625 4.90625 -10.640625 C 2.550781 -10.640625 0.964844 -9.425781 0.964844 -7.628906 C 0.964844 -5.273438 2.972656 -4.90625 4.75 -4.597656 C 6.160156 -4.363281 7.453125 -4.132812 7.453125 -2.898438 C 7.453125 -1.894531 6.429688 -1.273438 5 -1.273438 C 3.535156 -1.273438 2.472656 -1.949219 2.394531 -3.1875 L 0.773438 -3.1875 C 0.867188 -1.082031 2.472656 0.230469 4.945312 0.230469 Z M 4.945312 0.230469 "/></g></g></g><g fill="#38b6ff" fill-opacity="1"><g transform="translate(134.533903, 342.749977)"><g><path d="M 10.542969 -10.429688 L 10.332031 -8.824219 C 9.367188 -9.964844 7.917969 -10.640625 6.21875 -10.640625 C 3.128906 -10.640625 0.8125 -8.324219 0.8125 -5.195312 C 0.8125 -2.105469 3.128906 0.230469 6.21875 0.230469 C 7.917969 0.230469 9.347656 -0.445312 10.3125 -1.5625 L 10.488281 0 L 11.839844 0 L 11.839844 -10.429688 Z M 6.335938 -1.351562 C 4.132812 -1.351562 2.492188 -3.011719 2.492188 -5.214844 C 2.492188 -7.398438 4.132812 -9.058594 6.335938 -9.058594 C 8.554688 -9.058594 10.160156 -7.414062 10.160156 -5.214844 C 10.160156 -2.992188 8.554688 -1.351562 6.335938 -1.351562 Z M 6.335938 -1.351562 "/></g></g></g><g fill="#38b6ff" fill-opacity="1"><g transform="translate(152.031243, 342.749977)"><g><path d="M 6.410156 -10.46875 C 4.90625 -10.46875 3.824219 -9.90625 3.070312 -8.824219 L 2.820312 -10.429688 L 1.640625 -10.429688 L 1.640625 0 L 3.28125 0 L 3.28125 -5.660156 C 3.28125 -7.6875 4.363281 -8.921875 6.277344 -8.921875 L 7.339844 -8.921875 L 7.339844 -10.46875 Z M 6.410156 -10.46875 "/></g></g></g><g fill="#38b6ff" fill-opacity="1"><g transform="translate(163.483797, 342.749977)"><g><path d="M 6.410156 -10.46875 C 4.90625 -10.46875 3.824219 -9.90625 3.070312 -8.824219 L 2.820312 -10.429688 L 1.640625 -10.429688 L 1.640625 0 L 3.28125 0 L 3.28125 -5.660156 C 3.28125 -7.6875 4.363281 -8.921875 6.277344 -8.921875 L 7.339844 -8.921875 L 7.339844 -10.46875 Z M 6.410156 -10.46875 "/></g></g></g><g fill="#38b6ff" fill-opacity="1"><g transform="translate(174.93635, 342.749977)"><g><path d="M 6.355469 0.230469 C 9.5 0.230469 11.878906 -2.085938 11.878906 -5.214844 C 11.878906 -8.324219 9.5 -10.640625 6.355469 -10.640625 C 3.1875 -10.640625 0.8125 -8.34375 0.8125 -5.214844 C 0.8125 -2.085938 3.1875 0.230469 6.355469 0.230469 Z M 6.355469 -1.351562 C 4.113281 -1.351562 2.492188 -2.972656 2.492188 -5.214844 C 2.492188 -7.433594 4.113281 -9.058594 6.355469 -9.058594 C 8.574219 -9.058594 10.195312 -7.433594 10.195312 -5.195312 C 10.195312 -2.972656 8.574219 -1.351562 6.355469 -1.351562 Z M 6.355469 -1.351562 "/></g></g></g><g fill="#38b6ff" fill-opacity="1"><g transform="translate(191.661191, 342.749977)"><g><path d="M 1.640625 0 L 3.28125 0 L 3.28125 -14.136719 L 1.640625 -14.136719 Z M 1.640625 0 "/></g></g></g><g fill="#38b6ff" fill-opacity="1"><g transform="translate(200.603123, 342.749977)"><g><path d="M 1.640625 0 L 3.28125 0 L 3.28125 -14.136719 L 1.640625 -14.136719 Z M 1.640625 0 "/></g></g></g><g fill="#38b6ff" fill-opacity="1"><g transform="translate(209.545055, 342.749977)"><g><path d="M 6.355469 0.230469 C 9.5 0.230469 11.878906 -2.085938 11.878906 -5.214844 C 11.878906 -8.324219 9.5 -10.640625 6.355469 -10.640625 C 3.1875 -10.640625 0.8125 -8.34375 0.8125 -5.214844 C 0.8125 -2.085938 3.1875 0.230469 6.355469 0.230469 Z M 6.355469 -1.351562 C 4.113281 -1.351562 2.492188 -2.972656 2.492188 -5.214844 C 2.492188 -7.433594 4.113281 -9.058594 6.355469 -9.058594 C 8.574219 -9.058594 10.195312 -7.433594 10.195312 -5.195312 C 10.195312 -2.972656 8.574219 -1.351562 6.355469 -1.351562 Z M 6.355469 -1.351562 "/></g></g></g><g fill="#38b6ff" fill-opacity="1"><g transform="translate(226.269896, 342.749977)"><g/></g></g><g fill="#38b6ff" fill-opacity="1"><g transform="translate(235.327699, 342.749977)"><g><path d="M 17.574219 -13.519531 L 14.292969 -2.761719 L 10.214844 -13.25 L 9.539062 -13.25 L 5.582031 -2.761719 L 2.222656 -13.519531 L 0.425781 -13.519531 L 4.769531 0 L 6.257812 0 L 9.886719 -9.597656 L 13.617188 0 L 15.101562 0 L 19.371094 -13.519531 Z M 17.574219 -13.519531 "/></g></g></g><g fill="#38b6ff" fill-opacity="1"><g transform="translate(259.159527, 342.749977)"><g><path d="M 11.394531 -5.15625 C 11.394531 -8.207031 9.308594 -10.640625 6.140625 -10.640625 C 3.109375 -10.640625 0.832031 -8.304688 0.832031 -5.214844 C 0.832031 -2.105469 3.109375 0.230469 6.140625 0.230469 C 8.402344 0.230469 10.234375 -1.023438 11.125 -3.167969 L 9.386719 -3.167969 C 8.75 -2.046875 7.589844 -1.371094 6.140625 -1.371094 C 4.171875 -1.371094 2.722656 -2.644531 2.472656 -4.578125 L 11.355469 -4.578125 C 11.375 -4.769531 11.394531 -4.964844 11.394531 -5.15625 Z M 6.140625 -9.097656 C 7.996094 -9.097656 9.40625 -7.9375 9.753906 -6.082031 L 2.511719 -6.082031 C 2.839844 -7.898438 4.25 -9.097656 6.140625 -9.097656 Z M 6.140625 -9.097656 "/></g></g></g><g fill="#38b6ff" fill-opacity="1"><g transform="translate(275.362941, 342.749977)"><g><path d="M 7.144531 -10.640625 C 5.601562 -10.640625 4.25 -10.0625 3.28125 -9.097656 L 3.28125 -14.136719 L 1.640625 -14.136719 L 1.640625 0 L 2.917969 0 L 3.148438 -1.46875 C 4.113281 -0.40625 5.523438 0.230469 7.144531 0.230469 C 10.292969 0.230469 12.535156 -2.105469 12.535156 -5.214844 C 12.535156 -8.324219 10.292969 -10.640625 7.144531 -10.640625 Z M 7.03125 -1.351562 C 4.808594 -1.351562 3.1875 -3.03125 3.1875 -5.214844 C 3.1875 -7.398438 4.808594 -9.058594 7.03125 -9.058594 C 9.230469 -9.058594 10.855469 -7.414062 10.855469 -5.214844 C 10.855469 -2.992188 9.230469 -1.351562 7.03125 -1.351562 Z M 7.03125 -1.351562 "/></g></g></g></svg>